<?xml version="1.0" standalone="no"?>
<!DOCTYPE svg PUBLIC "-//W3C//DTD SVG 20010904//EN"
 "http://www.w3.org/TR/2001/REC-SVG-20010904/DTD/svg10.dtd">
<svg version="1.0" xmlns="http://www.w3.org/2000/svg"
 width="143.000000pt" height="143.000000pt" viewBox="0 0 143.000000 143.000000"
 preserveAspectRatio="xMidYMid meet">
<metadata>
Created by potrace 1.14, written by Peter Selinger 2001-2017
</metadata>
<g transform="translate(0.000000,143.000000) scale(0.100000,-0.100000)"
fill="#000000" stroke="none">
<path d="M696 1318 c2 -4 -5 -12 -16 -18 -11 -6 -18 -15 -15 -21 4 -5 -1 -9
-10 -9 -9 0 -14 -4 -11 -8 6 -10 -128 -152 -144 -152 -6 0 -9 -4 -6 -9 7 -10
-25 -21 -69 -25 -16 -1 -39 -7 -50 -13 -24 -13 -70 -61 -64 -66 13 -12 68 -34
64 -26 -9 14 8 11 33 -7 12 -8 22 -12 22 -8 0 4 11 -5 24 -19 13 -14 27 -23
30 -19 10 9 -5 -30 -16 -45 -6 -7 -7 -17 -4 -22 7 -11 -72 -91 -90 -91 -15 0
-73 -30 -59 -30 6 -1 -1 -7 -15 -15 -14 -8 -20 -15 -15 -15 6 0 3 -5 -5 -10
-12 -7 -12 -12 -2 -22 8 -8 47 -12 117 -13 117 0 126 -7 78 -55 -16 -15 -37
-38 -47 -51 -11 -13 -37 -44 -58 -69 -22 -25 -42 -50 -46 -55 -4 -6 -15 -20
-25 -31 -17 -21 -17 -21 34 -13 28 4 65 12 83 18 58 18 104 22 145 12 29 -6
41 -6 41 3 1 6 9 0 20 -13 12 -14 18 -32 15 -45 -3 -11 -7 -43 -9 -71 -2 -27
-7 -57 -10 -65 -6 -16 -10 -61 -7 -97 1 -25 36 -33 43 -10 3 6 18 13 34 13 16
1 32 2 35 3 9 1 4 75 -6 91 -6 9 -4 11 4 5 10 -5 11 -3 4 11 -5 11 -10 49 -12
86 -2 59 0 68 19 78 12 6 28 9 35 6 7 -2 16 -2 20 2 8 9 65 11 65 3 0 -3 20
-7 44 -8 35 -1 46 3 48 15 4 16 -26 52 -43 52 -5 0 -6 7 -3 15 4 8 1 15 -6 15
-6 0 -8 5 -5 10 3 6 2 10 -3 10 -5 0 -12 11 -14 24 -5 26 26 64 38 45 4 -7 10
-6 19 1 8 7 27 11 42 10 91 -6 99 9 44 84 -23 30 -41 59 -41 65 0 5 -5 11 -11
13 -5 2 -11 10 -12 18 -2 8 -6 21 -10 28 -9 13 -7 14 38 18 17 1 41 3 55 4 14
1 36 -1 50 -4 37 -9 93 -19 110 -21 9 0 21 -4 27 -8 35 -22 -22 67 -89 137
-15 17 -28 33 -28 37 0 4 -14 22 -31 40 -17 18 -36 40 -42 49 -7 9 -23 24 -37
33 -13 9 -20 17 -15 17 5 0 -1 7 -13 16 -12 8 -20 19 -17 24 3 4 -2 10 -10 14
-8 3 -15 12 -15 19 0 7 -11 20 -25 27 -13 7 -22 16 -20 20 3 4 -22 22 -55 39
-33 18 -60 29 -60 24 0 -4 -7 2 -15 14 -14 19 -61 30 -49 11z"/>
</g>
</svg>
